HIERARCHY
ROOT ui
{
	 OFFSET 0 0 0
	 CHANNELS 3 XPosition YPosition Z Position
	 EndSite
	 {
	 OFFSET 0 -1 0
	 }
}
ROOT li
{
	 OFFSET 0 0 0
	 CHANNELS 3 XPosition YPosition Z Position
	 EndSite
	 {
	 OFFSET 0 -1 0
	 }
}
ROOT ul
{
	 OFFSET 0 0 0
	 CHANNELS 3 XPosition YPosition Z Position
	 EndSite
	 {
	 OFFSET 0 -1 0
	 }
}
ROOT ll
{
	 OFFSET 0 0 0
	 CHANNELS 3 XPosition YPosition Z Position
	 EndSite
	 {
	 OFFSET 0 -1 0
	 }
}
ROOT tt
{
	 OFFSET 0 0 0
	 CHANNELS 3 XPosition YPosition Z Position
	 EndSite
	 {
	 OFFSET 0 -1 0
	 }
}
ROOT tb
{
	 OFFSET 0 0 0
	 CHANNELS 3 XPosition YPosition Z Position
	 EndSite
	 {
	 OFFSET 0 -1 0
	 }
}
ROOT td
{
	 OFFSET 0 0 0
	 CHANNELS 3 XPosition YPosition Z Position
	 EndSite
	 {
	 OFFSET 0 -1 0
	 }
}
ROOT v
{
	 OFFSET 0 0 0
	 CHANNELS 3 XPosition YPosition Z Position
	 EndSite
	 {
	 OFFSET 0 -1 0
	 }
}
ROOT bn
{
	 OFFSET 0 0 0
	 CHANNELS 3 XPosition YPosition Z Position
	 EndSite
	 {
	 OFFSET 0 -1 0
	 }
}
MOTION
Frames: 13
Frame Time: 0.002
0.0011680220365524292	-0.0011486690044403077	0		0.306199951171875	-2.752636474609375	0		-0.9900127563476563	-0.3793690795898437	0		-0.9157767333984375	-2.193285888671875	0		0.8906605224609375	-1.061905517578125	0		2.743517578125	-0.7180778198242187	0		4.32595654296875	-0.10046358489990234	0		5.70089208984375	0.2177477569580078	0		-0.278861083984375	5.870251953125	0		
0.024823698043823242	-0.002909801959991455	0		0.3138008728027344	-2.76221923828125	0		-1.0622926025390624	-0.3750966796875	0		-0.955037841796875	-2.189371826171875	0		0.8673855590820313	-1.0581451416015626	0		2.7471064453125	-0.7265895385742187	0		4.3057119140625	-0.09270086669921875	0		5.70753515625	0.21523681640625	0		-0.3012043762207031	5.87498779296875	0		
0.0036338229179382325	0.0048102068901062014	0		0.3234808654785156	-2.768833251953125	0		-1.0645673828125	-0.37559234619140625	0		-0.954264404296875	-2.1868994140625	0		0.8671492309570312	-1.0556458740234376	0		2.732009521484375	-0.71091162109375	0		4.3164326171875	-0.0932943115234375	0		5.7101572265625	0.20574615478515626	0		-0.2874365234375	5.88332421875	0		
0.0304703369140625	0.007006197929382324	0		0.3144459533691406	-2.756244384765625	0		-1.0627161865234376	-0.3721314392089844	0		-0.96231396484375	-2.17532958984375	0		0.8521036987304688	-1.0429884033203125	0		2.7076689453125	-0.7251427001953125	0		4.31423828125	-0.09375753784179687	0		5.70224462890625	0.23135775756835938	0		-0.2707131042480469	5.87862744140625	0		
0.025341960906982423	0.0025538129806518556	0		0.2973961181640625	-2.7545654296875	0		-0.99585791015625	-0.3783711853027344	0		-0.977333984375	-2.17067822265625	0		0.84495849609375	-1.0494151611328124	0		2.734650634765625	-0.7199312133789062	0		4.3120986328125	-0.0992244873046875	0		5.69607177734375	0.22294241333007814	0		-0.2246539764404297	5.8936181640625	0		
0.023386377334594727	0.0020760090351104737	0		0.3033291015625	-2.766128662109375	0		-1.1077840576171876	-0.3756572265625	0		-0.9792828369140625	-2.1711591796875	0		0.8310068969726563	-1.049760009765625	0		2.68658056640625	-0.7309002075195312	0		4.29223046875	-0.09149502563476562	0		5.699017578125	0.21342837524414063	0		-0.2747987976074219	5.877662109375	0		
0.017542009353637696	-0.0013473249673843384	0		0.30152182006835937	-2.76659521484375	0		-1.0726085205078124	-0.3775279846191406	0		-0.9810911254882813	-2.1716279296875	0		0.836131103515625	-1.05630126953125	0		2.693791015625	-0.7294605102539062	0		4.3042763671875	-0.10510657501220703	0		5.68820556640625	0.2130688934326172	0		-0.3106840515136719	5.871564453125	0		
0.01991431999206543	0.0011559410095214845	0		0.28383099365234377	-2.769874267578125	0		-1.1381451416015624	-0.3662868957519531	0		-1.0156399536132812	-2.161723388671875	0		0.8365038452148438	-1.053776123046875	0		2.690022705078125	-0.7398904418945312	0		4.271705078125	-0.09722222137451172	0		5.6955234375	0.2105198974609375	0		-0.29624908447265624	5.87993701171875	0		
0.024485208511352538	0.007653864860534668	0		0.3034306945800781	-2.76053955078125	0		-1.0616331787109374	-0.36556961059570314	0		-0.98607275390625	-2.15549609375	0		0.7591436157226562	-1.0403885498046874	0		2.694788330078125	-0.7153963623046875	0		4.291275390625	-0.09089129638671875	0		5.6940185546875	0.2100775146484375	0		-0.2987368469238281	5.88051171875	0		
-0.008929103851318359	0.0015842440128326417	0		0.2591304931640625	-2.755490966796875	0		-1.0700498046875	-0.37190850830078126	0		-0.9993626098632813	-2.149781494140625	0		0.8216453247070312	-1.05450244140625	0		2.661144287109375	-0.7424705810546876	0		4.2768818359375	-0.09517605590820312	0		5.67469091796875	0.21184288024902342	0		-0.28111956787109377	5.87588818359375	0		
0.0158562650680542	-9.566400200128556E-5	0		0.3118296203613281	-2.7644755859375	0		-1.071253173828125	-0.3723026123046875	0		-1.0135164184570313	-2.145034912109375	0		0.7385316162109375	-1.04601171875	0		2.66204833984375	-0.7328985595703125	0		4.26263671875	-0.09944408416748046	0		5.66351171875	0.2135364990234375	0		-0.28230364990234375	5.87549169921875	0		
-0.011191568374633788	8.103430271148681E-4	0		0.26472906494140624	-2.76735302734375	0		-1.1052694091796875	-0.36831658935546874	0		-1.0046722412109375	-2.153515869140625	0		0.7404998779296875	-1.043423828125	0		2.645866455078125	-0.7441213989257812	0		4.2674892578125	-0.10790010070800782	0		5.66324560546875	0.19412890625	0		-0.2692230224609375	5.88596337890625	0		
0.016913414001464844	0.0031394920349121095	0		0.293778564453125	-2.769035888671875	0		-1.1031644287109375	-0.365699951171875	0		-1.098308349609375	-2.12585693359375	0		0.7365369873046875	-1.04674951171875	0		2.647056884765625	-0.733510498046875	0		4.2665634765625	-0.10827229309082032	0		5.6674072265625	0.2016943359375	0		-0.30418685913085936	5.8799794921875	0		
